<?xml version="1.0" standalone="no"?>
<!DOCTYPE svg PUBLIC "-//W3C//DTD SVG 20010904//EN"
 "http://www.w3.org/TR/2001/REC-SVG-20010904/DTD/svg10.dtd">
<svg version="1.0" xmlns="http://www.w3.org/2000/svg"
 width="1536.000000pt" height="1536.000000pt" viewBox="0 0 1536.000000 1536.000000"
 preserveAspectRatio="xMidYMid meet">
<metadata>
Created by potrace 1.10, written by Peter Selinger 2001-2011
</metadata>
<g transform="translate(0.000000,1536.000000) scale(0.100000,-0.100000)"
fill="#ffffff" stroke="none">
<path d="M6385 15351 c10 -17 -11 -21 -157 -31 -78 -5 -201 -19 -273 -30 -71
-11 -168 -25 -215 -31 -47 -6 -93 -15 -102 -20 -9 -5 -29 -9 -44 -9 -15 0 -53
-6 -83 -14 -31 -8 -90 -21 -131 -30 -171 -38 -559 -155 -612 -186 -10 -6 -23
-10 -29 -10 -11 0 -176 -64 -209 -81 -8 -4 -46 -21 -85 -39 -38 -17 -128 -60
-200 -96 -128 -64 -147 -74 -182 -94 -10 -6 -29 -15 -42 -20 -14 -6 -54 -30
-90 -54 -83 -55 -200 -126 -207 -126 -3 0 -50 -34 -105 -76 -55 -42 -124 -92
-153 -112 -62 -43 -144 -108 -201 -161 -22 -20 -65 -56 -95 -80 -132 -103
-608 -598 -654 -680 -5 -9 -35 -45 -66 -81 -67 -77 -120 -146 -120 -154 0 -3
-40 -59 -88 -124 -49 -65 -106 -147 -127 -183 -21 -35 -49 -78 -62 -95 -13
-17 -23 -34 -23 -37 0 -3 -19 -34 -42 -69 -62 -93 -68 -101 -74 -118 -3 -8
-12 -31 -20 -51 -20 -45 -15 -247 6 -299 22 -52 75 -120 128 -163 67 -53 400
-309 426 -327 11 -8 53 -40 91 -70 39 -31 162 -126 274 -211 113 -85 252 -190
310 -234 292 -223 470 -358 509 -388 24 -17 58 -44 75 -58 87 -72 278 -137
360 -124 56 10 135 41 178 71 40 27 150 145 209 223 19 26 51 65 72 87 20 21
53 62 75 90 21 28 131 157 245 285 269 305 437 470 632 620 44 34 233 133 311
162 84 31 131 50 163 63 18 8 47 14 65 14 18 1 50 7 72 15 22 8 54 15 72 15
18 0 58 7 90 16 74 19 636 22 693 3 19 -6 58 -15 85 -19 97 -14 242 -56 330
-94 31 -14 61 -26 66 -26 17 0 160 -74 236 -123 24 -15 45 -27 49 -27 3 0 33
-21 66 -47 33 -27 87 -69 119 -94 114 -88 247 -258 285 -362 57 -158 56 -153
55 -342 0 -132 -4 -193 -15 -230 -9 -27 -16 -60 -16 -72 0 -12 -7 -44 -16 -70
-78 -243 -213 -428 -434 -597 -90 -69 -232 -166 -244 -166 -3 0 -24 -13 -48
-29 -24 -16 -182 -98 -353 -183 -330 -164 -382 -194 -568 -322 -65 -44 -126
-86 -135 -91 -67 -41 -113 -75 -148 -108 -23 -20 -57 -50 -76 -65 -131 -101
-289 -246 -444 -409 -172 -182 -218 -234 -294 -333 -19 -25 -38 -49 -43 -55
-34 -44 -77 -105 -77 -108 0 -2 -25 -42 -56 -88 -91 -138 -248 -474 -274 -589
-9 -40 -27 -113 -46 -187 -8 -28 -14 -68 -14 -90 -1 -21 -7 -65 -15 -98 -12
-47 -15 -144 -15 -449 0 -396 3 -429 41 -521 4 -11 20 -49 35 -85 14 -36 37
-79 50 -97 13 -17 24 -36 24 -41 0 -18 81 -83 135 -107 l54 -25 1299 0 c1270
0 1301 0 1362 20 78 25 146 74 199 145 84 111 117 199 131 350 8 94 23 164 51
245 20 58 129 282 160 328 16 24 29 45 29 48 0 19 170 248 273 367 66 76 298
278 347 301 19 9 40 22 115 71 72 47 95 62 115 71 8 4 48 27 87 51 40 23 75
43 78 43 3 0 37 20 75 45 38 25 72 45 76 45 3 0 26 14 51 30 24 17 46 30 48
30 11 0 190 110 265 163 177 126 452 342 560 441 129 119 367 366 398 414 9
15 19 29 22 32 12 10 100 129 100 134 0 3 18 35 40 72 49 79 150 278 180 354
12 30 28 67 36 82 8 14 14 33 14 41 0 9 6 28 14 44 15 30 33 80 46 128 5 17
20 62 33 100 14 39 33 99 42 135 10 36 24 85 31 109 8 25 14 58 14 75 0 16 6
55 14 85 37 146 56 489 45 826 -6 184 -12 240 -45 430 -34 201 -125 503 -210
703 -8 17 -20 47 -27 65 -50 120 -152 309 -257 477 -25 40 -59 96 -75 126 -17
29 -40 63 -52 76 -11 13 -29 37 -39 54 -11 17 -32 48 -49 68 -16 21 -41 51
-55 69 -14 17 -47 61 -75 98 -103 139 -390 435 -535 553 -19 15 -53 45 -75 65
-22 20 -87 71 -145 113 -58 42 -127 94 -155 115 -42 32 -106 75 -221 151 -10
6 -28 16 -39 21 -11 5 -37 21 -58 35 -21 14 -40 26 -42 26 -2 0 -30 17 -62 38
-32 21 -112 66 -178 99 -357 178 -364 182 -432 210 -67 27 -109 45 -136 59
-16 8 -35 14 -43 14 -8 0 -25 6 -37 14 -12 8 -91 37 -176 66 -84 28 -163 55
-175 60 -20 7 -52 17 -186 53 -30 9 -91 23 -135 32 -44 9 -102 23 -130 30 -67
19 -144 33 -240 44 -44 5 -100 14 -125 20 -25 5 -88 12 -140 16 -108 7 -133
12 -125 26 4 5 -141 9 -370 9 -230 0 -374 -4 -370 -9z"/>
<path d="M5151 5178 c-78 -38 -169 -126 -195 -188 -10 -25 -24 -60 -32 -78
-12 -27 -14 -246 -14 -1368 0 -1318 0 -1335 20 -1395 12 -34 28 -73 37 -88 22
-36 141 -151 157 -151 6 0 17 -5 23 -11 7 -7 36 -20 65 -30 50 -18 113 -19
1379 -19 1276 0 1328 1 1381 19 115 39 216 129 271 241 l32 65 0 1365 0 1365
-34 66 c-43 86 -124 167 -206 208 l-65 31 -1377 0 -1378 0 -64 -32z"/>
</g>
</svg>
